<svg width="346" height="113" viewBox="0 0 346 113" fill="none" xmlns="http://www.w3.org/2000/svg">
<g clip-path="url(#clip0_88_2)">
<rect width="346" height="113" fill="white"/>
<path d="M55.8991 49.9841C55.4498 49.9841 55.0451 49.904 54.685 49.744C54.328 49.5809 54.0449 49.3408 53.8356 49.0238C53.6294 48.7068 53.5263 48.316 53.5263 47.8512C53.5263 47.4511 53.6001 47.1203 53.7479 46.8587C53.8956 46.5971 54.0972 46.3878 54.3526 46.2309C54.6081 46.0739 54.8958 45.9554 55.2159 45.8754C55.5391 45.7923 55.873 45.7323 56.2177 45.6953C56.6332 45.6523 56.9702 45.6138 57.2287 45.5799C57.4872 45.543 57.675 45.4876 57.7919 45.4137C57.9119 45.3368 57.9719 45.2183 57.9719 45.0583V45.0306C57.9719 44.6828 57.8688 44.4135 57.6626 44.2227C57.4564 44.0319 57.1594 43.9365 56.7717 43.9365C56.3623 43.9365 56.0376 44.0257 55.7976 44.2042C55.5606 44.3827 55.4006 44.5935 55.3175 44.8367L53.7571 44.6151C53.8802 44.1842 54.0833 43.8241 54.3665 43.5348C54.6496 43.2425 54.9959 43.0239 55.4052 42.8793C55.8145 42.7316 56.2669 42.6577 56.7624 42.6577C57.104 42.6577 57.4441 42.6977 57.7827 42.7777C58.1212 42.8578 58.4305 42.9901 58.7106 43.1747C58.9906 43.3563 59.2153 43.6041 59.3846 43.918C59.5569 44.2319 59.6431 44.6243 59.6431 45.0952V49.8409H58.0366V48.8669H57.9812C57.8796 49.0638 57.7365 49.2485 57.5518 49.4208C57.3703 49.5901 57.141 49.7271 56.864 49.8317C56.5901 49.9333 56.2685 49.9841 55.8991 49.9841ZM56.3331 48.7561C56.6686 48.7561 56.9594 48.6899 57.2056 48.5576C57.4518 48.4221 57.6411 48.2436 57.7734 48.0221C57.9089 47.8005 57.9766 47.5589 57.9766 47.2973V46.4617C57.9242 46.5048 57.835 46.5448 57.7088 46.5817C57.5857 46.6186 57.4472 46.651 57.2933 46.6787C57.1394 46.7064 56.9871 46.731 56.8363 46.7525C56.6855 46.7741 56.5547 46.7925 56.4439 46.8079C56.1946 46.8418 55.9715 46.8972 55.7745 46.9741C55.5775 47.0511 55.4221 47.1588 55.3082 47.2973C55.1944 47.4327 55.1374 47.6081 55.1374 47.8235C55.1374 48.1313 55.2498 48.3637 55.4744 48.5206C55.6991 48.6776 55.9853 48.7561 56.3331 48.7561ZM62.9947 45.6861V49.8409H61.3235V42.75H62.9208V43.9549H63.0039C63.167 43.5579 63.4271 43.2425 63.7841 43.0086C64.1442 42.7747 64.5889 42.6577 65.1183 42.6577C65.6076 42.6577 66.0339 42.7623 66.397 42.9716C66.7633 43.1809 67.0464 43.4841 67.2464 43.8811C67.4496 44.2781 67.5496 44.7597 67.5465 45.326V49.8409H65.8754V45.5846C65.8754 45.1106 65.7522 44.7397 65.506 44.472C65.2629 44.2042 64.9259 44.0703 64.495 44.0703C64.2027 44.0703 63.9426 44.135 63.7148 44.2642C63.4902 44.3904 63.3132 44.5735 63.1839 44.8136C63.0578 45.0537 62.9947 45.3445 62.9947 45.6861ZM71.2859 49.9841C70.8365 49.9841 70.4318 49.904 70.0717 49.744C69.7147 49.5809 69.4316 49.3408 69.2223 49.0238C69.0161 48.7068 68.913 48.316 68.913 47.8512C68.913 47.4511 68.9869 47.1203 69.1346 46.8587C69.2823 46.5971 69.4839 46.3878 69.7393 46.2309C69.9948 46.0739 70.2826 45.9554 70.6026 45.8754C70.9258 45.7923 71.2597 45.7323 71.6044 45.6953C72.0199 45.6523 72.3569 45.6138 72.6154 45.5799C72.8739 45.543 73.0617 45.4876 73.1786 45.4137C73.2987 45.3368 73.3587 45.2183 73.3587 45.0583V45.0306C73.3587 44.6828 73.2556 44.4135 73.0494 44.2227C72.8432 44.0319 72.5462 43.9365 72.1584 43.9365C71.7491 43.9365 71.4244 44.0257 71.1843 44.2042C70.9473 44.3827 70.7873 44.5935 70.7042 44.8367L69.1438 44.6151C69.2669 44.1842 69.4701 43.8241 69.7532 43.5348C70.0363 43.2425 70.3826 43.0239 70.7919 42.8793C71.2012 42.7316 71.6536 42.6577 72.1491 42.6577C72.4908 42.6577 72.8308 42.6977 73.1694 42.7777C73.5079 42.8578 73.8172 42.9901 74.0973 43.1747C74.3774 43.3563 74.602 43.6041 74.7713 43.918C74.9437 44.2319 75.0298 44.6243 75.0298 45.0952V49.8409H73.4233V48.8669H73.3679C73.2663 49.0638 73.1232 49.2485 72.9386 49.4208C72.757 49.5901 72.5277 49.7271 72.2507 49.8317C71.9768 49.9333 71.6552 49.9841 71.2859 49.9841ZM71.7198 48.7561C72.0553 48.7561 72.3461 48.6899 72.5923 48.5576C72.8385 48.4221 73.0278 48.2436 73.1602 48.0221C73.2956 47.8005 73.3633 47.5589 73.3633 47.2973V46.4617C73.311 46.5048 73.2217 46.5448 73.0955 46.5817C72.9724 46.6186 72.8339 46.651 72.68 46.6787C72.5262 46.7064 72.3738 46.731 72.223 46.7525C72.0722 46.7741 71.9414 46.7925 71.8306 46.8079C71.5813 46.8418 71.3582 46.8972 71.1612 46.9741C70.9643 47.0511 70.8088 47.1588 70.695 47.2973C70.5811 47.4327 70.5241 47.6081 70.5241 47.8235C70.5241 48.1313 70.6365 48.3637 70.8612 48.5206C71.0858 48.6776 71.372 48.7561 71.7198 48.7561ZM78.3814 40.3864V49.8409H76.7102V40.3864H78.3814ZM81.1386 52.5C80.9108 52.5 80.7 52.4816 80.5061 52.4446C80.3153 52.4108 80.163 52.3708 80.0491 52.3246L80.4369 51.0228C80.68 51.0935 80.897 51.1274 81.0878 51.1243C81.2786 51.1212 81.4463 51.0612 81.591 50.9443C81.7387 50.8304 81.8634 50.6396 81.9649 50.3718L82.108 49.9887L79.5367 42.75H81.3094L82.9436 48.1051H83.0175L84.6563 42.75H86.4337L83.5945 50.6996C83.4622 51.0751 83.2868 51.3967 83.0683 51.6645C82.8498 51.9353 82.582 52.1415 82.265 52.2831C81.9511 52.4277 81.5756 52.5 81.1386 52.5ZM91.1309 42.75V44.0426H87.0546V42.75H91.1309ZM88.061 41.0512H89.7322V47.7081C89.7322 47.9328 89.766 48.1051 89.8337 48.2252C89.9045 48.3421 89.9968 48.4221 90.1107 48.4652C90.2246 48.5083 90.3508 48.5299 90.4893 48.5299C90.5939 48.5299 90.6893 48.5222 90.7755 48.5068C90.8647 48.4914 90.9324 48.4775 90.9786 48.4652L91.2602 49.7717C91.171 49.8025 91.0432 49.8363 90.877 49.8733C90.7139 49.9102 90.5139 49.9317 90.2769 49.9379C89.8583 49.9502 89.4813 49.8871 89.1459 49.7486C88.8104 49.607 88.5442 49.3885 88.3472 49.0931C88.1533 48.7976 88.0579 48.4283 88.061 47.9851V41.0512ZM92.5286 49.8409V42.75H94.1998V49.8409H92.5286ZM93.3688 41.7436C93.1041 41.7436 92.8764 41.6559 92.6855 41.4805C92.4947 41.302 92.3993 41.0881 92.3993 40.8388C92.3993 40.5864 92.4947 40.3725 92.6855 40.1971C92.8764 40.0186 93.1041 39.9294 93.3688 39.9294C93.6365 39.9294 93.8643 40.0186 94.052 40.1971C94.2428 40.3725 94.3382 40.5864 94.3382 40.8388C94.3382 41.0881 94.2428 41.302 94.052 41.4805C93.8643 41.6559 93.6365 41.7436 93.3688 41.7436ZM99.0113 49.9794C98.3034 49.9794 97.6956 49.824 97.1878 49.5132C96.683 49.2023 96.2937 48.773 96.0198 48.2252C95.749 47.6743 95.6135 47.0403 95.6135 46.3232C95.6135 45.603 95.752 44.9675 96.029 44.4166C96.306 43.8626 96.6969 43.4317 97.2016 43.124C97.7094 42.8131 98.3096 42.6577 99.002 42.6577C99.5776 42.6577 100.087 42.7639 100.53 42.9762C100.976 43.1855 101.332 43.4825 101.597 43.8672C101.861 44.2488 102.012 44.6951 102.049 45.206H100.452C100.387 44.8644 100.233 44.5797 99.99 44.352C99.7499 44.1211 99.4283 44.0057 99.0251 44.0057C98.6835 44.0057 98.3834 44.098 98.1249 44.2827C97.8664 44.4643 97.6648 44.7259 97.5202 45.0675C97.3786 45.4091 97.3078 45.8185 97.3078 46.2955C97.3078 46.7787 97.3786 47.1942 97.5202 47.5419C97.6617 47.8866 97.8602 48.1529 98.1157 48.3406C98.3742 48.5252 98.6773 48.6176 99.0251 48.6176C99.2713 48.6176 99.4914 48.5714 99.6853 48.4791C99.8823 48.3837 100.047 48.2467 100.179 48.0682C100.312 47.8897 100.402 47.6727 100.452 47.4173H102.049C102.009 47.9189 101.861 48.3637 101.606 48.7515C101.35 49.1362 101.003 49.4378 100.562 49.6563C100.122 49.8717 99.6053 49.9794 99.0113 49.9794ZM109.026 44.6243L107.502 44.7905C107.459 44.6366 107.384 44.492 107.276 44.3566C107.171 44.2212 107.03 44.1119 106.851 44.0288C106.673 43.9457 106.454 43.9042 106.196 43.9042C105.848 43.9042 105.556 43.9796 105.319 44.1304C105.085 44.2812 104.969 44.4766 104.972 44.7167C104.969 44.9229 105.045 45.0906 105.199 45.2198C105.355 45.3491 105.614 45.4553 105.974 45.5384L107.184 45.7969C107.855 45.9416 108.353 46.1708 108.679 46.4848C109.009 46.7987 109.175 47.2096 109.178 47.7174C109.175 48.1636 109.044 48.5576 108.786 48.8992C108.53 49.2377 108.175 49.5024 107.719 49.6932C107.264 49.884 106.74 49.9794 106.15 49.9794C105.282 49.9794 104.583 49.7979 104.054 49.4347C103.524 49.0685 103.209 48.5591 103.107 47.9066L104.737 47.7497C104.811 48.0698 104.968 48.3113 105.208 48.4745C105.448 48.6376 105.76 48.7191 106.145 48.7191C106.542 48.7191 106.86 48.6376 107.1 48.4745C107.344 48.3113 107.465 48.1098 107.465 47.8697C107.465 47.6666 107.387 47.4988 107.23 47.3665C107.076 47.2342 106.836 47.1326 106.51 47.0618L105.3 46.8079C104.62 46.6663 104.117 46.4278 103.79 46.0924C103.464 45.7538 103.303 45.326 103.306 44.809C103.303 44.372 103.421 43.9934 103.661 43.6733C103.904 43.3502 104.241 43.1009 104.672 42.9255C105.106 42.747 105.606 42.6577 106.173 42.6577C107.004 42.6577 107.658 42.8347 108.135 43.1886C108.615 43.5425 108.912 44.0211 109.026 44.6243ZM115.796 49.8409V51.1751H109.688V49.8409H115.796ZM119.776 49.9794C119.065 49.9794 118.451 49.8317 117.934 49.5363C117.42 49.2377 117.025 48.8161 116.748 48.2713C116.471 47.7235 116.332 47.0788 116.332 46.337C116.332 45.6076 116.471 44.9675 116.748 44.4166C117.028 43.8626 117.419 43.4317 117.92 43.124C118.422 42.8131 119.011 42.6577 119.688 42.6577C120.126 42.6577 120.538 42.7285 120.926 42.8701C121.317 43.0086 121.661 43.224 121.96 43.5164C122.261 43.8087 122.498 44.1811 122.671 44.6336C122.843 45.0829 122.929 45.6184 122.929 46.2401V46.7525H117.117V45.6261H121.327C121.324 45.306 121.255 45.0213 121.12 44.7721C120.984 44.5197 120.795 44.3212 120.552 44.1765C120.312 44.0319 120.032 43.9596 119.712 43.9596C119.37 43.9596 119.07 44.0426 118.811 44.2088C118.553 44.372 118.351 44.5874 118.207 44.8551C118.065 45.1198 117.993 45.4107 117.99 45.7277V46.711C117.99 47.1234 118.065 47.4773 118.216 47.7728C118.367 48.0651 118.577 48.2898 118.848 48.4468C119.119 48.6006 119.436 48.6776 119.799 48.6776C120.042 48.6776 120.262 48.6437 120.459 48.576C120.656 48.5052 120.827 48.4021 120.972 48.2667C121.117 48.1313 121.226 47.9636 121.3 47.7635L122.86 47.939C122.762 48.3514 122.574 48.7114 122.297 49.0192C122.023 49.3239 121.672 49.5609 121.244 49.7301C120.816 49.8963 120.327 49.9794 119.776 49.9794ZM130.474 42.75L127.949 49.8409H126.102L123.577 42.75H125.359L126.988 48.0174H127.062L128.696 42.75H130.474ZM134.528 49.9794C133.817 49.9794 133.203 49.8317 132.686 49.5363C132.172 49.2377 131.777 48.8161 131.5 48.2713C131.223 47.7235 131.084 47.0788 131.084 46.337C131.084 45.6076 131.223 44.9675 131.5 44.4166C131.78 43.8626 132.171 43.4317 132.672 43.124C133.174 42.8131 133.763 42.6577 134.44 42.6577C134.877 42.6577 135.29 42.7285 135.678 42.8701C136.069 43.0086 136.413 43.224 136.712 43.5164C137.013 43.8087 137.25 44.1811 137.423 44.6336C137.595 45.0829 137.681 45.6184 137.681 46.2401V46.7525H131.869V45.6261H136.079C136.076 45.306 136.007 45.0213 135.872 44.7721C135.736 44.5197 135.547 44.3212 135.304 44.1765C135.064 44.0319 134.784 43.9596 134.464 43.9596C134.122 43.9596 133.822 44.0426 133.563 44.2088C133.305 44.372 133.103 44.5874 132.959 44.8551C132.817 45.1198 132.745 45.4107 132.742 45.7277V46.711C132.742 47.1234 132.817 47.4773 132.968 47.7728C133.119 48.0651 133.329 48.2898 133.6 48.4468C133.871 48.6006 134.188 48.6776 134.551 48.6776C134.794 48.6776 135.014 48.6437 135.211 48.576C135.408 48.5052 135.579 48.4021 135.724 48.2667C135.868 48.1313 135.978 47.9636 136.052 47.7635L137.612 47.939C137.513 48.3514 137.326 48.7114 137.049 49.0192C136.775 49.3239 136.424 49.5609 135.996 49.7301C135.568 49.8963 135.079 49.9794 134.528 49.9794ZM140.766 45.6861V49.8409H139.095V42.75H140.692V43.9549H140.775C140.939 43.5579 141.199 43.2425 141.556 43.0086C141.916 42.7747 142.36 42.6577 142.89 42.6577C143.379 42.6577 143.805 42.7623 144.169 42.9716C144.535 43.1809 144.818 43.4841 145.018 43.8811C145.221 44.2781 145.321 44.7597 145.318 45.326V49.8409H143.647V45.5846C143.647 45.1106 143.524 44.7397 143.278 44.472C143.034 44.2042 142.697 44.0703 142.267 44.0703C141.974 44.0703 141.714 44.135 141.486 44.2642C141.262 44.3904 141.085 44.5735 140.955 44.8136C140.829 45.0537 140.766 45.3445 140.766 45.6861ZM150.558 42.75V44.0426H146.481V42.75H150.558ZM147.488 41.0512H149.159V47.7081C149.159 47.9328 149.193 48.1051 149.26 48.2252C149.331 48.3421 149.424 48.4221 149.537 48.4652C149.651 48.5083 149.778 48.5299 149.916 48.5299C150.021 48.5299 150.116 48.5222 150.202 48.5068C150.291 48.4914 150.359 48.4775 150.405 48.4652L150.687 49.7717C150.598 49.8025 150.47 49.8363 150.304 49.8733C150.141 49.9102 149.941 49.9317 149.704 49.9379C149.285 49.9502 148.908 49.8871 148.573 49.7486C148.237 49.607 147.971 49.3885 147.774 49.0931C147.58 48.7976 147.485 48.4283 147.488 47.9851V41.0512ZM157.458 44.6243L155.935 44.7905C155.892 44.6366 155.816 44.492 155.709 44.3566C155.604 44.2212 155.462 44.1119 155.284 44.0288C155.105 43.9457 154.887 43.9042 154.628 43.9042C154.281 43.9042 153.988 43.9796 153.751 44.1304C153.517 44.2812 153.402 44.4766 153.405 44.7167C153.402 44.9229 153.477 45.0906 153.631 45.2198C153.788 45.3491 154.047 45.4553 154.407 45.5384L155.616 45.7969C156.287 45.9416 156.786 46.1708 157.112 46.4848C157.441 46.7987 157.607 47.2096 157.611 47.7174C157.607 48.1636 157.477 48.5576 157.218 48.8992C156.963 49.2377 156.607 49.5024 156.152 49.6932C155.696 49.884 155.173 49.9794 154.582 49.9794C153.714 49.9794 153.016 49.7979 152.486 49.4347C151.957 49.0685 151.641 48.5591 151.54 47.9066L153.169 47.7497C153.243 48.0698 153.4 48.3113 153.64 48.4745C153.88 48.6376 154.193 48.7191 154.578 48.7191C154.975 48.7191 155.293 48.6376 155.533 48.4745C155.776 48.3113 155.898 48.1098 155.898 47.8697C155.898 47.6666 155.819 47.4988 155.662 47.3665C155.508 47.2342 155.268 47.1326 154.942 47.0618L153.733 46.8079C153.053 46.6663 152.549 46.4278 152.223 46.0924C151.897 45.7538 151.735 45.326 151.738 44.809C151.735 44.372 151.854 43.9934 152.094 43.6733C152.337 43.3502 152.674 43.1009 153.105 42.9255C153.539 42.747 154.039 42.6577 154.605 42.6577C155.436 42.6577 156.09 42.8347 156.567 43.1886C157.047 43.5425 157.344 44.0211 157.458 44.6243Z" fill="black"/>
<path d="M53.8245 71H58.3641V70.2919H56.5793V64.2294H55.6869L53.4753 65.4807L53.7954 66.1015L55.7645 64.9666V70.2919H53.8245V71ZM61.4352 67.1006H60.6883V67.799H61.4934C62.4828 67.799 62.9872 68.2646 62.9872 69.06V69.1376C62.9872 69.9427 62.4537 70.4083 61.5031 70.4083C60.6495 70.4083 60.2518 70.03 59.8929 69.4965L59.2818 69.9621C59.6989 70.5441 60.31 71.1164 61.5031 71.1164C62.9096 71.1164 63.8408 70.3113 63.8408 69.1473C63.8408 68.1288 63.1327 67.5856 62.3858 67.4401V67.4013C63.123 67.217 63.705 66.6932 63.705 65.8202C63.705 64.7241 62.7835 64.113 61.6292 64.113C60.5234 64.113 59.922 64.6756 59.5728 65.2188L60.1839 65.6844C60.4652 65.1703 60.892 64.8211 61.6098 64.8211C62.347 64.8211 62.8514 65.1897 62.8514 65.9075V65.9754C62.8514 66.6253 62.3761 67.1006 61.4352 67.1006ZM66.3105 71H67.1835L69.7831 64.9472V64.2294H65.2629V66.1888H65.9904V64.9278H68.9586L66.3105 71ZM77.0117 70.3404V71H81.1924V70.3404H79.2524V67.5953C79.2524 67.12 79.7762 66.7708 80.6492 66.7708H81.6871V65.9948H80.8044C79.9702 65.9948 79.4949 66.4119 79.3009 66.8872H79.2524V65.9948H77.0117V66.6544H78.4764V70.3404H77.0117ZM84.9911 71.1164C86.3976 71.1164 87.2609 70.0882 87.2609 68.4974C87.2609 66.9066 86.3976 65.8784 84.9911 65.8784C83.5846 65.8784 82.7213 66.9066 82.7213 68.4974C82.7213 70.0882 83.5846 71.1164 84.9911 71.1164ZM84.9911 70.4471C84.1278 70.4471 83.5458 69.933 83.5458 68.8563V68.1385C83.5458 67.0618 84.1278 66.5477 84.9911 66.5477C85.8544 66.5477 86.4364 67.0618 86.4364 68.1385V68.8563C86.4364 69.933 85.8544 70.4471 84.9911 70.4471ZM88.6442 65.9948L90.0798 71H91.0207L92.2429 67.0715H92.2623L93.4942 71H94.4545L95.8804 65.9948H95.1529L93.9986 70.3501H93.9792L92.6115 65.9948H91.9228L90.5842 70.3501H90.5648L89.4008 65.9948H88.6442ZM99.5993 71.1164C100.88 71.1164 101.714 70.5441 101.714 69.5547C101.714 68.4683 100.715 68.2743 99.997 68.1676L99.2113 68.0512C98.7651 67.9833 98.3286 67.8475 98.3286 67.3237C98.3286 66.8096 98.7651 66.5283 99.5508 66.5283C100.433 66.5283 100.88 66.8775 101.112 67.1588L101.617 66.6835C101.142 66.1791 100.482 65.8784 99.5799 65.8784C98.4159 65.8784 97.5623 66.3731 97.5623 67.3722C97.5623 68.4586 98.5711 68.6526 99.2792 68.7593L100.065 68.8757C100.521 68.9436 100.948 69.0794 100.948 69.6032C100.948 70.1949 100.395 70.4665 99.6187 70.4665C98.8233 70.4665 98.2801 70.1852 97.8048 69.6808L97.281 70.1367C97.8048 70.7284 98.5517 71.1164 99.5993 71.1164ZM109.136 72.3386H109.835L113.21 63.628H112.512L109.136 72.3386ZM121.487 64.2294H120.672V68.0997C120.672 70.1076 120.963 71.1164 122.806 71.1164C124.649 71.1164 124.94 70.1076 124.94 68.0997V64.2294H124.125V68.2937C124.125 69.6032 124.077 70.4083 122.806 70.4083C121.535 70.4083 121.487 69.6032 121.487 68.2937V64.2294ZM126.634 65.9948V72.94H127.41V70.1852H127.448C127.769 70.7963 128.292 71.1164 128.991 71.1164C130.213 71.1164 130.95 70.1367 130.95 68.4974C130.95 66.8581 130.213 65.8784 128.991 65.8784C128.292 65.8784 127.769 66.1985 127.448 66.8096H127.41V65.9948H126.634ZM128.69 70.4277C128.001 70.4277 127.41 70.0688 127.41 69.3995V67.5953C127.41 66.926 128.001 66.5671 128.69 66.5671C129.592 66.5671 130.116 67.1685 130.116 68.0706V68.9242C130.116 69.8263 129.592 70.4277 128.69 70.4277ZM135.651 70.1852V71H136.427V63.822H135.651V66.8096H135.612C135.292 66.1985 134.768 65.8784 134.07 65.8784C132.848 65.8784 132.11 66.8581 132.11 68.4974C132.11 70.1367 132.848 71.1164 134.07 71.1164C134.768 71.1164 135.292 70.7963 135.612 70.1852H135.651ZM134.37 70.4277C133.468 70.4277 132.945 69.8263 132.945 68.9242V68.0706C132.945 67.1685 133.468 66.5671 134.37 66.5671C135.059 66.5671 135.651 66.926 135.651 67.5953V69.3995C135.651 70.0688 135.059 70.4277 134.37 70.4277ZM142.146 71H142.68V70.321H141.981V67.5662C141.981 66.5089 141.234 65.8784 140.061 65.8784C139.042 65.8784 138.402 66.3634 138.15 66.8872L138.673 67.2752C138.935 66.8193 139.343 66.538 140.012 66.538C140.769 66.538 141.205 66.9163 141.205 67.6438V68.1385H140.138C138.635 68.1385 137.985 68.672 137.985 69.5935C137.985 70.5344 138.654 71.1164 139.702 71.1164C140.516 71.1164 140.992 70.7575 141.205 70.1852H141.254C141.312 70.6508 141.545 71 142.146 71ZM139.837 70.4665C139.197 70.4665 138.8 70.1949 138.8 69.6808V69.4771C138.8 68.9921 139.217 68.7205 140.138 68.7205H141.205V69.545C141.205 70.0591 140.633 70.4665 139.837 70.4665ZM146.313 71H148.263V70.3404H145.983V66.6544H148.263V65.9948H145.983V64.2294H145.237V65.5389C145.237 65.8784 145.11 65.9948 144.781 65.9948H143.539V66.6544H145.207V69.8554C145.207 70.5247 145.557 71 146.313 71ZM151.974 71.1164C152.964 71.1164 153.681 70.6314 153.982 69.9621L153.41 69.5741C153.148 70.1173 152.644 70.4471 151.974 70.4471C151.033 70.4471 150.442 69.8069 150.442 68.9242V68.6914H154.147V68.3228C154.147 66.9066 153.274 65.8784 151.926 65.8784C150.568 65.8784 149.627 66.9066 149.627 68.5071C149.627 70.0882 150.539 71.1164 151.974 71.1164ZM151.926 66.5186C152.75 66.5186 153.313 67.12 153.313 68.0027V68.1094H150.442V68.0415C150.442 67.1685 151.072 66.5186 151.926 66.5186ZM158.916 70.1852V71H159.692V63.822H158.916V66.8096H158.877C158.557 66.1985 158.033 65.8784 157.335 65.8784C156.112 65.8784 155.375 66.8581 155.375 68.4974C155.375 70.1367 156.112 71.1164 157.335 71.1164C158.033 71.1164 158.557 70.7963 158.877 70.1852H158.916ZM157.635 70.4277C156.733 70.4277 156.209 69.8263 156.209 68.9242V68.0706C156.209 67.1685 156.733 66.5671 157.635 66.5671C158.324 66.5671 158.916 66.926 158.916 67.5953V69.3995C158.916 70.0688 158.324 70.4277 157.635 70.4277ZM169.345 71.1164C170.723 71.1164 171.625 70.2046 171.625 68.8757C171.625 67.5953 170.781 66.7902 169.597 66.7902C168.754 66.7902 168.259 67.2073 167.929 67.7602L167.881 67.7408C168.259 66.1694 169.074 65.2867 170.548 64.2294H169.5C168.395 64.9375 167.046 66.5089 167.046 68.5168C167.046 70.127 167.919 71.1164 169.345 71.1164ZM169.336 70.4277C168.414 70.4277 167.871 69.8942 167.871 68.9824V68.9048C167.871 67.993 168.414 67.4595 169.336 67.4595C170.257 67.4595 170.8 67.993 170.8 68.9048V68.9824C170.8 69.8942 170.257 70.4277 169.336 70.4277ZM178.989 71H179.765V67.5274C179.765 66.8872 180.347 66.5768 180.958 66.5768C181.696 66.5768 182.035 67.0327 182.035 67.9251V71H182.811V67.5274C182.811 66.8872 183.374 66.5768 183.985 66.5768C184.741 66.5768 185.081 67.0424 185.081 67.9251V71H185.857V67.7893C185.857 66.5768 185.246 65.8784 184.227 65.8784C183.374 65.8784 182.889 66.3537 182.704 66.8969H182.685C182.413 66.1791 181.812 65.8784 181.152 65.8784C180.376 65.8784 180.027 66.2955 179.804 66.8096H179.765V65.9948H178.989V71ZM190.012 64.889C190.458 64.889 190.623 64.6756 190.623 64.3943V64.2391C190.623 63.9578 190.458 63.7444 190.012 63.7444C189.566 63.7444 189.401 63.9578 189.401 64.2391V64.3943C189.401 64.6756 189.566 64.889 190.012 64.889ZM187.82 70.3404V71H192.088V70.3404H190.4V65.9948H187.82V66.6544H189.624V70.3404H187.82ZM193.559 71H194.335V67.5274C194.335 66.8678 194.955 66.5671 195.576 66.5671C196.343 66.5671 196.76 67.0133 196.76 67.9251V71H197.536V67.7893C197.536 66.5768 196.847 65.8784 195.799 65.8784C194.975 65.8784 194.587 66.3149 194.373 66.8096H194.335V65.9948H193.559V71ZM202.518 70.1852V71H203.294V65.9948H202.518V69.4674C202.518 70.127 201.897 70.4277 201.276 70.4277C200.51 70.4277 200.093 69.9815 200.093 69.0697V65.9948H199.317V69.2055C199.317 70.418 200.005 71.1164 201.053 71.1164C201.877 71.1164 202.265 70.6799 202.479 70.1852H202.518ZM207.393 71H209.343V70.3404H207.063V66.6544H209.343V65.9948H207.063V64.2294H206.316V65.5389C206.316 65.8784 206.19 65.9948 205.86 65.9948H204.619V66.6544H206.287V69.8554C206.287 70.5247 206.636 71 207.393 71ZM213.054 71.1164C214.043 71.1164 214.761 70.6314 215.062 69.9621L214.49 69.5741C214.228 70.1173 213.723 70.4471 213.054 70.4471C212.113 70.4471 211.521 69.8069 211.521 68.9242V68.6914H215.227V68.3228C215.227 66.9066 214.354 65.8784 213.005 65.8784C211.647 65.8784 210.707 66.9066 210.707 68.5071C210.707 70.0882 211.618 71.1164 213.054 71.1164ZM213.005 66.5186C213.83 66.5186 214.393 67.12 214.393 68.0027V68.1094H211.521V68.0415C211.521 67.1685 212.152 66.5186 213.005 66.5186ZM218.841 71.1164C220.121 71.1164 220.956 70.5441 220.956 69.5547C220.956 68.4683 219.957 68.2743 219.239 68.1676L218.453 68.0512C218.007 67.9833 217.57 67.8475 217.57 67.3237C217.57 66.8096 218.007 66.5283 218.793 66.5283C219.675 66.5283 220.121 66.8775 220.354 67.1588L220.859 66.6835C220.383 66.1791 219.724 65.8784 218.822 65.8784C217.658 65.8784 216.804 66.3731 216.804 67.3722C216.804 68.4586 217.813 68.6526 218.521 68.7593L219.307 68.8757C219.763 68.9436 220.189 69.0794 220.189 69.6032C220.189 70.1949 219.636 70.4665 218.86 70.4665C218.065 70.4665 217.522 70.1852 217.047 69.6808L216.523 70.1367C217.047 70.7284 217.793 71.1164 218.841 71.1164ZM232.307 71H232.84V70.321H232.142V67.5662C232.142 66.5089 231.395 65.8784 230.221 65.8784C229.203 65.8784 228.563 66.3634 228.31 66.8872L228.834 67.2752C229.096 66.8193 229.503 66.538 230.173 66.538C230.929 66.538 231.366 66.9163 231.366 67.6438V68.1385H230.299C228.795 68.1385 228.145 68.672 228.145 69.5935C228.145 70.5344 228.815 71.1164 229.862 71.1164C230.677 71.1164 231.152 70.7575 231.366 70.1852H231.414C231.473 70.6508 231.705 71 232.307 71ZM229.998 70.4665C229.358 70.4665 228.96 70.1949 228.96 69.6808V69.4771C228.96 68.9921 229.377 68.7205 230.299 68.7205H231.366V69.545C231.366 70.0591 230.794 70.4665 229.998 70.4665ZM238.22 70.8351V65.9948H237.444V66.8096H237.405C237.085 66.1985 236.561 65.8784 235.863 65.8784C234.641 65.8784 233.903 66.8581 233.903 68.4295C233.903 70.0009 234.641 70.9806 235.863 70.9806C236.561 70.9806 237.085 70.6605 237.405 70.0494H237.444V70.8836C237.444 71.873 236.969 72.3774 236.028 72.3774C235.455 72.3774 235.019 72.1834 234.679 71.8342L234.224 72.3677C234.621 72.7751 235.203 73.0564 236.018 73.0564C237.415 73.0564 238.22 72.2125 238.22 70.8351ZM236.164 70.2919C235.261 70.2919 234.738 69.6905 234.738 68.7884V68.0706C234.738 67.1685 235.261 66.5671 236.164 66.5671C236.852 66.5671 237.444 66.926 237.444 67.5953V69.2637C237.444 69.933 236.852 70.2919 236.164 70.2919ZM242.048 71.1164C243.454 71.1164 244.317 70.0882 244.317 68.4974C244.317 66.9066 243.454 65.8784 242.048 65.8784C240.641 65.8784 239.778 66.9066 239.778 68.4974C239.778 70.0882 240.641 71.1164 242.048 71.1164ZM242.048 70.4471C241.184 70.4471 240.602 69.933 240.602 68.8563V68.1385C240.602 67.0618 241.184 66.5477 242.048 66.5477C242.911 66.5477 243.493 67.0618 243.493 68.1385V68.8563C243.493 69.933 242.911 70.4471 242.048 70.4471Z" fill="#676B7B"/>
<rect x="36.75" y="24.75" width="272.5" height="64.5" rx="5.25" stroke="#D9D9D9" stroke-width="1.5"/>
<rect x="21" y="32.8409" width="24" height="24" rx="4" fill="#C157DB"/>
<path d="M32.9998 39.1986C31.726 39.1986 30.5704 39.4583 29.6934 39.9119C28.8166 40.3654 28.1631 41.0563 28.1631 41.9192V48.3018C28.1631 49.1647 28.8166 49.8509 29.6934 50.3045C30.5702 50.758 31.7258 51.0224 32.9998 51.0224C34.2735 51.0224 35.4293 50.758 36.3061 50.3045C37.1829 49.8509 37.8364 49.1647 37.8364 48.3018V41.9192C37.8364 41.0563 37.1829 40.3654 36.3061 39.9119C35.4293 39.4583 34.2737 39.1986 32.9998 39.1986ZM32.9998 40.1054C34.1467 40.1054 35.1808 40.3477 35.8904 40.7147C36.6 41.0817 36.9295 41.5299 36.9295 41.9191C36.9295 42.3083 36.6 42.7518 35.8904 43.1188C35.1808 43.4858 34.1468 43.7328 32.9998 43.7328C31.8528 43.7328 30.8187 43.4858 30.1091 43.1188C29.3995 42.7518 29.07 42.3083 29.07 41.9191C29.07 41.5299 29.3995 41.0817 30.1091 40.7147C30.8187 40.3477 31.8527 40.1054 32.9998 40.1054ZM29.0701 43.5299C29.2582 43.6757 29.4689 43.8058 29.6935 43.922C30.5703 44.3755 31.726 44.6399 32.9999 44.6399C34.2736 44.6399 35.4294 44.3755 36.3063 43.922C36.531 43.8058 36.7417 43.6758 36.9298 43.5299V44.7552C36.9298 45.1444 36.6003 45.5879 35.8906 45.9549C35.181 46.3219 34.147 46.5689 33 46.5689C31.853 46.5689 30.8189 46.3219 30.1093 45.9549C29.3999 45.5879 29.0703 45.1444 29.0703 44.7552L29.0701 43.5299ZM29.0701 46.5506C29.2588 46.6975 29.4673 46.8304 29.6935 46.9473C30.5703 47.4009 31.726 47.6653 32.9999 47.6653C34.2736 47.6653 35.4294 47.4009 36.3063 46.9473C36.5326 46.8303 36.741 46.6975 36.9298 46.5506V48.0866C36.9298 48.4758 36.6003 48.9192 35.8906 49.2862C35.181 49.6533 34.147 49.9002 33 49.9002C31.853 49.9002 30.8189 49.6533 30.1093 49.2862C29.3997 48.9192 29.0702 48.4758 29.0702 48.0866L29.0701 46.5506Z" fill="white"/>
<path d="M310 57C350.83 57 362.346 89 363 105" stroke="#B7B7B7"/>
<path d="M310 57C334.451 57 366.854 51 380 48" stroke="#B7B7B7"/>
</g>
<defs>
<clipPath id="clip0_88_2">
<rect width="346" height="113" fill="white"/>
</clipPath>
</defs>
</svg>
